<svg xmlns="http://www.w3.org/2000/svg" width="30" height="30" viewBox="0 0 30 30"><g id="Group_7990" data-name="Group 7990" transform="translate(-1339.999 -773)"><g id="Group_829" data-name="Group 829" transform="translate(1339.998 773)"><circle id="Ellipse_21" cx="15" cy="15" r="15" fill="#e0e0e1" data-name="Ellipse 21" transform="translate(0.001 0)"/></g><g id="Group_831" data-name="Group 831" transform="translate(1345.433 778.433)"><path id="Path_2714" fill="#fbbb00" d="M4.241,144.664l-.666,2.486L1.14,147.2a9.584,9.584,0,0,1-.07-8.934h0l2.167.4.949,2.154a5.71,5.71,0,0,0,.054,3.844Z" data-name="Path 2714" transform="translate(0 -133.101)"/><path id="Path_2715" fill="#518ef8" d="M270.818,208.176a9.564,9.564,0,0,1-3.411,9.248h0l-2.73-.139-.386-2.412a5.7,5.7,0,0,0,2.453-2.912h-5.116v-3.785h9.19Z" data-name="Path 2715" transform="translate(-251.85 -200.396)"/><path id="Path_2716" fill="#28b446" d="M44.925,314.873h0a9.57,9.57,0,0,1-14.417-2.927l3.1-2.538a5.69,5.69,0,0,0,8.2,2.913Z" data-name="Path 2716" transform="translate(-29.369 -297.846)"/><path id="Path_2717" fill="#f14336" d="M43.228,2.2l-3.1,2.537a5.689,5.689,0,0,0-8.388,2.979L28.625,5.167h0A9.569,9.569,0,0,1,43.228,2.2Z" data-name="Path 2717" transform="translate(-27.554)"/></g></g></svg>